<?xml version="1.0" encoding="UTF-8"?>
<svg version="1.1" xmlns="http://www.w3.org/2000/svg" width="300" height="268">
<path d="M0 0 C8.63553452 5.89490059 16.40197787 12.84354629 24 20 C27.93899046 18.66638019 30.25334647 17.04311991 33.1875 14.125 C43.81392344 4.30745357 56.50969895 -3.76214568 70 -9 C70.94875 -9.37125 71.8975 -9.7425 72.875 -10.125 C81.296996 -12.48315888 91.92749923 -12.19275205 99.828125 -8.375 C109.04318827 -2.54100311 114.48875982 6.64539238 117.140625 17.11328125 C118.30986007 22.80423262 118.3819043 28.4568601 118.375 34.25 C118.37628906 35.37865479 118.37757813 36.50730957 118.37890625 37.67016602 C118.2539122 47.77692938 116.72018293 57.33523742 114.3671875 67.14428711 C113.90294731 69.17520841 113.90294731 69.17520841 114 72 C114.55236328 72.20044922 115.10472656 72.40089844 115.67382812 72.60742188 C132.17077136 78.63488829 148.30021128 84.71376466 162 96 C162.99773437 96.81017578 162.99773437 96.81017578 164.015625 97.63671875 C170.1581437 103.15163228 174.32528196 110.33877993 175.51171875 118.53515625 C175.87357378 130.00221737 172.62085258 137.96473275 165.24609375 146.625 C152.04530867 160.58339536 134.82130423 166.51240182 116.98681641 172.27905273 C115.02752111 172.83131141 115.02752111 172.83131141 114 174 C114.19823392 175.55973272 114.47324862 177.1097521 114.77734375 178.65234375 C116.90187451 190.08783724 118.4112363 201.22493298 118.4375 212.875 C118.4470874 213.92421631 118.4566748 214.97343262 118.46655273 216.05444336 C118.33894609 227.9124085 115.35150523 240.1712659 107 249 C100.84164078 254.66772071 93.0260314 256.96904539 84.75 257.4375 C61.72971778 256.45091648 42.45139018 240.6982175 27 225 C24.22111891 226.29183287 21.96972139 227.7057203 19.63671875 229.6875 C18.68901611 230.48111938 18.68901611 230.48111938 17.72216797 231.29077148 C17.05072754 231.85481689 16.37928711 232.4188623 15.6875 233 C-1.34842865 247.02008253 -18.06339212 258.42768056 -40.953125 257.22216797 C-47.91897937 256.4660936 -53.75240651 252.18312132 -58.40234375 247.1484375 C-66.40412607 236.38809452 -68.38978301 225.35943454 -68.375 212.3125 C-68.37628906 211.13163818 -68.37757812 209.95077637 -68.37890625 208.73413086 C-68.25770874 198.51015714 -66.78585425 188.86874 -64.3671875 178.95336914 C-63.87683939 176.67607197 -63.87683939 176.67607197 -64 173 C-64.57741943 172.8047876 -65.15483887 172.6095752 -65.74975586 172.40844727 C-82.20064039 166.78904539 -98.86600187 160.80116111 -112 149 C-112.93005859 148.22462891 -112.93005859 148.22462891 -113.87890625 147.43359375 C-120.08930447 141.86703811 -124.3104274 134.76384127 -125.51171875 126.46484375 C-125.88636211 114.59252482 -122.36418786 106.57948807 -114.671875 97.66796875 C-101.30203991 84.3176802 -83.45164023 78.1107659 -65.8190918 72.64501953 C-64.00530994 72.14868941 -64.00530994 72.14868941 -63 71 C-63.19823627 69.5243895 -63.47328683 68.05905122 -63.77734375 66.6015625 C-65.99719384 55.25965246 -67.41252342 44.26213219 -67.4375 32.6875 C-67.4470874 31.58680176 -67.4566748 30.48610352 -67.46655273 29.35205078 C-67.34334816 17.33276009 -64.63618661 5.77580348 -56.375 -3.25 C-39.94982815 -18.50409012 -16.72126329 -10.37392728 0 0 Z " fill="#022B3B" transform="translate(125,11)"/>
<path d="M0 0 C1.34247299 -0.02893593 1.34247299 -0.02893593 2.71206665 -0.05845642 C6.82200075 -0.11629267 10.93175908 -0.16551361 15.04199219 -0.19628906 C17.2049154 -0.21783083 19.36775234 -0.25188791 21.53027344 -0.29882812 C24.6551797 -0.36603298 27.77828025 -0.39332578 30.90380859 -0.41235352 C32.34175278 -0.4540995 32.34175278 -0.4540995 33.80874634 -0.49668884 C39.80317613 -0.47849028 43.43128391 0.56298604 48.01806641 4.49897766 C50.43129481 6.9857774 52.11435991 9.57094345 53.78271484 12.60327148 C54.11467361 13.19492599 54.44663239 13.78658051 54.78865051 14.39616394 C55.83081983 16.26245129 56.84804302 18.14098273 57.86474609 20.02124023 C58.55517684 21.26758538 59.24722533 22.51303577 59.94091797 23.75756836 C61.27101342 26.14961946 62.58925258 28.54752984 63.89648438 30.95214844 C65.81212817 34.45540764 67.78383967 37.92359712 69.78491211 41.37866211 C71.47042997 44.83547247 71.59984726 47.58599298 70.67724609 51.20874023 C68.75600656 56.10859214 66.24623083 60.62891611 63.67724609 65.20874023 C62.88084717 66.64564209 62.88084717 66.64564209 62.06835938 68.11157227 C60.26881245 71.34218034 58.44608969 74.5585596 56.61474609 77.77124023 C56.0254834 78.81860352 55.4362207 79.8659668 54.82910156 80.94506836 C51.27229264 87.07989368 48.17646433 91.95913112 41.67724609 95.20874023 C40.22868468 95.31826467 38.77533848 95.36774734 37.32275391 95.38574219 C36.42131653 95.39857742 35.51987915 95.41141266 34.59112549 95.42463684 C33.61407654 95.43202377 32.63702759 95.43941071 31.63037109 95.44702148 C30.62641296 95.45509323 29.62245483 95.46316498 28.58807373 95.47148132 C26.45961233 95.48532865 24.33112866 95.49604789 22.20263672 95.50390625 C18.95415861 95.52109781 15.70670372 95.56497615 12.45849609 95.60913086 C10.39079525 95.61925958 8.32308574 95.62777512 6.25537109 95.63452148 C5.28641907 95.65202957 4.31746704 95.66953766 3.31915283 95.68757629 C-2.41466104 95.6692242 -5.8522436 95.15606087 -10.32275391 91.20874023 C-13.29375422 87.92656866 -15.46016949 84.43258324 -17.60009766 80.56811523 C-18.19628906 79.4969043 -18.79248047 78.42569336 -19.40673828 77.32202148 C-20.01839844 76.21213867 -20.63005859 75.10225586 -21.26025391 73.95874023 C-21.86804688 72.86432617 -22.47583984 71.76991211 -23.10205078 70.64233398 C-24.29628552 68.49090786 -25.4831502 66.33537189 -26.66210938 64.17553711 C-27.68789432 62.34293808 -28.75280866 60.53091453 -29.87792969 58.75756836 C-33.3110322 53.25783245 -34.78857429 48.66483381 -33.32275391 42.20874023 C-31.3360936 37.62526238 -28.82539453 33.45036237 -26.19775391 29.20874023 C-25.53259766 28.09756836 -24.86744141 26.98639648 -24.18212891 25.84155273 C-22.86951904 23.65386963 -21.54617867 21.47258379 -20.21142578 19.29833984 C-17.97728599 15.64360367 -15.81926656 11.94679601 -13.67578125 8.23828125 C-10.32169732 3.20715536 -6.07126702 0.12222857 0 0 Z " fill="#FDD84B" transform="translate(130.32275390625,85.791259765625)"/>
<path d="M0 0 C5.78760366 3.17312633 9.16978946 8.24568216 11.7109375 14.234375 C19.16187056 40.06860103 9.75264053 72.70943424 -1.2890625 96.234375 C-2.60473633 98.10913086 -2.60473633 98.10913086 -4.2890625 99.234375 C-6.80615234 99.16625977 -6.80615234 99.16625977 -9.2890625 98.234375 C-10.78369141 96.53881836 -10.78369141 96.53881836 -12.015625 94.32421875 C-12.48444092 93.50695312 -12.95325684 92.6896875 -13.4362793 91.84765625 C-13.92394775 90.96464844 -14.41161621 90.08164063 -14.9140625 89.171875 C-15.97115866 87.33487314 -17.0324242 85.5002648 -18.09765625 83.66796875 C-18.62987793 82.74999512 -19.16209961 81.83202148 -19.71044922 80.88623047 C-29.59353753 64.28398716 -41.73392154 48.03129725 -54.61328125 33.63671875 C-56.2890625 31.234375 -56.2890625 31.234375 -56.98828125 28.81640625 C-55.82865074 24.53419527 -52.52488524 22.54811287 -49.1015625 19.921875 C-48.37557861 19.35082031 -47.64959473 18.77976562 -46.90161133 18.19140625 C-16.34744755 -5.46774696 -16.34744755 -5.46774696 0 0 Z " fill="#FC4053" transform="translate(217.2890625,13.765625)"/>
<path d="M0 0 C2.99068649 1.11649939 3.60831072 1.97124426 5.13476562 4.72998047 C5.59318848 5.53169678 6.05161133 6.33341309 6.52392578 7.15942383 C7.24394775 8.46665405 7.24394775 8.46665405 7.97851562 9.80029297 C9.03354999 11.63512816 10.09358925 13.46709315 11.15820312 15.29638672 C11.97562988 16.70186768 11.97562988 16.70186768 12.80957031 18.13574219 C20.97359107 31.78145624 30.59181812 44.67101855 40.76367188 56.87841797 C41.31853271 57.55163086 41.87339355 58.22484375 42.44506836 58.91845703 C43.52600896 60.22646994 44.6175379 61.52582616 45.72094727 62.81494141 C47.85975836 65.40586178 49.31897549 67.27853444 50.13085938 70.56982422 C49.15878883 74.07975559 47.24340194 75.35907924 44.41601562 77.61279297 C43.88306885 78.03778076 43.35012207 78.46276855 42.80102539 78.90063477 C33.09011866 86.50539345 23.00492815 93.39776558 11.47851562 97.92529297 C10.48851563 98.35841797 9.49851562 98.79154297 8.47851562 99.23779297 C2.99986507 100.49331705 -2.54539024 101.20219822 -7.83398438 98.93310547 C-14.72422406 94.31351295 -17.91300353 87.16969036 -19.83398438 79.30029297 C-23.20944404 57.8231035 -17.10206049 36.79401394 -10.39648438 16.55029297 C-10.17897522 15.8884198 -9.96146606 15.22654663 -9.73736572 14.5446167 C-4.86795054 -0.14422859 -4.86795054 -0.14422859 0 0 Z " fill="#FC4053" transform="translate(89.521484375,155.07470703125)"/>
<path d="M0 0 C0.96679688 0.00902344 1.93359375 0.01804688 2.9296875 0.02734375 C3.65414062 0.03894531 4.37859375 0.05054688 5.125 0.0625 C11.58385095 15.35835623 13.39386028 38.68052742 7.2421875 54.3046875 C4.72212924 59.72182061 1.7849838 63.72899791 -3.875 66.0625 C-19.86609102 67.86794576 -32.82190573 60.71009987 -45.03881836 51.07617188 C-57.88351934 40.51670321 -69.73923024 28.23358049 -79.875 15.0625 C-80.535 14.4025 -81.195 13.7425 -81.875 13.0625 C-82.125 10.5625 -82.125 10.5625 -81.875 8.0625 C-79.16583518 5.35333518 -77.73641133 5.80959091 -73.9453125 5.7890625 C-72.06465088 5.76199219 -72.06465088 5.76199219 -70.14599609 5.734375 C-69.47139343 5.72728516 -68.79679077 5.72019531 -68.10174561 5.71289062 C-54.72536987 5.55129422 -41.53606139 4.60420984 -28.25 3.0625 C-27.47110413 2.9726886 -26.69220825 2.8828772 -25.88970947 2.79034424 C-17.22611121 1.79847378 -17.22611121 1.79847378 -8.60351562 0.51000977 C-5.6872596 0.03170829 -2.9525262 -0.03600642 0 0 Z " fill="#FC4053" transform="translate(220.875,188.9375)"/>
<path d="M0 0 C0.99 0.99 0.99 0.99 2 2 C1.76980784 7.51784137 -0.0583953 11.44669761 -2.875 16.0625 C-13.18348194 33.75476092 -21.37473111 52.13054058 -28.82421875 71.18945312 C-32.15770609 79.15770609 -32.15770609 79.15770609 -34 81 C-40.74219374 80.64555324 -46.17657261 78.58592696 -52.3125 75.875 C-53.24022217 75.46975098 -54.16794434 75.06450195 -55.1237793 74.64697266 C-61.85825529 71.6440239 -68.08890348 68.44887791 -74 64 C-74.75539063 63.43667969 -75.51078125 62.87335938 -76.2890625 62.29296875 C-81.7247527 57.91476737 -85.16296536 53.53760883 -86.4453125 46.5859375 C-86.94846649 39.51990545 -84.4407514 35.30505871 -80 30 C-79.51660156 29.39414063 -79.03320312 28.78828125 -78.53515625 28.1640625 C-63.50886293 11.26426187 -22.31811817 -2.54694192 0 0 Z " fill="#FC4053" transform="translate(99,89)"/>
<path d="M0 0 C6.21192167 0.03927273 11.61378162 1.66674117 17.25 4.125 C17.98162354 4.43775879 18.71324707 4.75051758 19.46704102 5.07275391 C47.2286613 17.14565472 47.2286613 17.14565472 53 30 C54.16783254 36.49677717 52.93713665 41.85486753 49.71484375 47.55859375 C42.79269809 57.41358473 32.71644888 62.31219089 22 67 C21.38447266 67.27440918 20.76894531 67.54881836 20.13476562 67.83154297 C3.52726253 75.08947067 -15.84487439 79.93398136 -34 80 C-35.25801456 74.88231772 -35.01259066 72.06308038 -32.29516602 67.51123047 C-31.88838623 66.86814941 -31.48160645 66.22506836 -31.0625 65.5625 C-30.21566238 64.14115798 -29.37198589 62.71792848 -28.53125 61.29296875 C-28.10328125 60.57544434 -27.6753125 59.85791992 -27.234375 59.11865234 C-17.56274635 42.51849541 -9.80232339 24.32373513 -3.06811523 6.36962891 C-1.08598312 1.08598312 -1.08598312 1.08598312 0 0 Z " fill="#FC4053" transform="translate(234,97)"/>
<path d="M0 0 C1.62411368 0.77185601 3.22810449 1.58708963 4.8125 2.4375 C5.74320313 2.911875 6.67390625 3.38625 7.6328125 3.875 C26.88630222 14.33120329 43.6113282 32.20763272 56.8125 49.4375 C57.1425 49.7675 57.4725 50.0975 57.8125 50.4375 C57.9375 53.4375 57.9375 53.4375 57.8125 56.4375 C56.16478479 58.08521521 54.23296477 57.58561244 51.9609375 57.61328125 C37.25621544 57.90708524 22.75098015 58.86422795 8.125 60.375 C7.28016052 60.46045074 6.43532104 60.54590149 5.56488037 60.63394165 C-2.807784 61.48749138 -10.98962197 62.47524196 -19.1875 64.4375 C-22.235971 64.6465858 -25.12523598 64.53471473 -28.1875 64.4375 C-33.52088556 53.08396417 -33.38407852 40.35688049 -33.5625 28 C-33.58852295 27.00621338 -33.6145459 26.01242676 -33.64135742 24.98852539 C-33.66129313 16.76057786 -31.831901 9.50563914 -26.6875 2.9375 C-19.99337229 -3.75662771 -8.50048607 -3.22050936 0 0 Z " fill="#FD4053" transform="translate(104.1875,14.5625)"/>
</svg>
